<?xml version="1.0" encoding="UTF-8"?>
<svg width="40px" height="40px" viewBox="0 0 40 40" version="1.1" xmlns="http://www.w3.org/2000/svg" xmlns:xlink="http://www.w3.org/1999/xlink">
    <title>33B8489A-0ADF-4A25-8556-8342633BA3DF</title>
    <g id="**-Website-Idea-2" stroke="none" stroke-width="1" fill="none" fill-rule="evenodd">
        <g id="Landing-Page-Spec" transform="translate(-1108.000000, -50.000000)">
            <g id="Page-Header" transform="translate(120.000000, 50.000000)">
                <path d="M1019.51117,18.9071667 C1017.74317,18.8933333 1015.97117,19.1148333 1014.20533,19.2821667 C1013.7355,19.3266667 1013.45167,19.3191667 1013.24283,18.809 C1012.781,17.6806667 1012.24167,16.5841667 1011.6865,15.3711667 C1015.082,13.8723333 1018.18883,12.0096667 1020.901,9.544 C1022.867,11.1038333 1024.96183,16.6733333 1024.624,19.3618333 C1022.91883,19.1995 1021.216,18.9205 1019.51117,18.9071667 M1018.00933,33.4038333 C1016.96417,29.7146667 1015.93367,26.0775 1014.88717,22.3838333 C1018.07717,21.8361667 1021.27567,21.9975 1024.52483,22.7383333 C1023.70967,27.205 1021.5145,30.7188333 1018.00933,33.4038333 M1014.43933,35.4668333 C1008.9445,37.7965 1002.148,36.8823333 997.575667,33.0231667 C1001.30183,28.4486667 1005.84133,25.0588333 1011.54383,23.1548333 C1013.0075,26.9491667 1014.10767,30.7218333 1014.81467,34.608 C1014.88383,34.9885 1014.89517,35.2738333 1014.43933,35.4668333 M991.2725,19.3396667 C997.200833,19.2233333 1002.976,18.4506667 1008.634,16.5408333 C1009.21033,17.7616667 1009.762,18.9298333 1010.35083,20.1768333 C1004.2715,22.2461667 999.346833,25.8683333 995.226333,30.803 C992.469167,27.4586667 991.170833,23.698 991.2725,19.3396667 M1001.408,4.65133333 C1003.30783,7.57966667 1005.22933,10.5415 1007.22067,13.6106667 C1002.08967,15.2628333 997.0435,15.9855 991.892833,16.0931667 C991.685667,12.6061667 996.683333,6.54783333 1001.408,4.65133333 M1018.74917,7.15766667 C1016.18783,9.49533333 1013.34617,11.171 1010.27133,12.4758333 C1008.40817,9.53583333 1006.55933,6.61866667 1004.63617,3.584 C1009.89617,2.65116667 1014.541,3.82066667 1018.74917,7.15766667 M1008,0 C996.954167,0 988,8.95433333 988,20 C988,31.0458333 996.954167,40 1008,40 C1019.04567,40 1028,31.0458333 1028,20 C1028,8.95433333 1019.04567,0 1008,0" id="Dribbble-Icon" fill="#FFFFFF"></path>
            </g>
        </g>
    </g>
</svg>