<?xml version="1.0" encoding="UTF-8"?>
<svg width="40px" height="31px" viewBox="0 0 40 31" version="1.1" xmlns="http://www.w3.org/2000/svg" xmlns:xlink="http://www.w3.org/1999/xlink">
    <title>7B6654CA-D319-474A-A0F1-B1891EB90E4B</title>
    <g id="**-Website-Idea-2" stroke="none" stroke-width="1" fill="none" fill-rule="evenodd">
        <g id="Landing-Page-Spec" transform="translate(-1228.000000, -55.000000)">
            <g id="Page-Header" transform="translate(120.000000, 50.000000)">
                <path d="M1144.92308,5 C1146.62241,5 1148,6.38791728 1148,8.1 L1148,8.1 L1148,32.9 C1148,34.6120827 1146.62241,36 1144.92308,36 L1144.92308,36 L1111.07692,36 C1109.37759,36 1108,34.6120827 1108,32.9 L1108,32.9 L1108,8.1 C1108,6.38791728 1109.37759,5 1111.07692,5 L1111.07692,5 Z M1144.923,9.992 L1128,22.9642359 L1111.076,9.992 L1111.07692,32.9 L1144.92308,32.9 L1144.923,9.992 Z M1142.31,8.1 L1113.689,8.1 L1128,19.0678 L1142.31,8.1 Z" id="Email-Icon" fill="#222222"></path>
            </g>
        </g>
    </g>
</svg>