<?xml version="1.0" encoding="UTF-8"?>
<svg width="40px" height="40px" viewBox="0 0 40 40" version="1.1" xmlns="http://www.w3.org/2000/svg" xmlns:xlink="http://www.w3.org/1999/xlink">
    <title>9BC75254-926B-4F5D-86D4-F883B3730E7B</title>
    <g id="**-Website-Idea-2" stroke="none" stroke-width="1" fill="none" fill-rule="evenodd">
        <g id="Landing-Page-Spec" transform="translate(-1168.000000, -50.000000)">
            <g id="Page-Header" transform="translate(120.000000, 50.000000)">
                <path d="M1078.76923,0 C1083.86724,0 1088,4.13275616 1088,9.23076923 L1088,9.23076923 L1088,30.7692308 C1088,35.8672438 1083.86724,40 1078.76923,40 L1078.76923,40 L1057.23077,40 C1052.13276,40 1048,35.8672438 1048,30.7692308 L1048,30.7692308 L1048,9.23076923 C1048,4.13275616 1052.13276,0 1057.23077,0 L1057.23077,0 Z M1078.76923,3.07692308 L1057.23077,3.07692308 C1053.83209,3.07692308 1051.07692,5.83209385 1051.07692,9.23076923 L1051.07692,9.23076923 L1051.07692,30.7692308 C1051.07692,34.1679062 1053.83209,36.9230769 1057.23077,36.9230769 L1057.23077,36.9230769 L1078.76923,36.9230769 C1082.16791,36.9230769 1084.92308,34.1679062 1084.92308,30.7692308 L1084.92308,30.7692308 L1084.92308,9.23076923 C1084.92308,5.83209385 1082.16791,3.07692308 1078.76923,3.07692308 L1078.76923,3.07692308 Z M1061.84615,13.8461538 L1061.84615,30.7692308 L1057.23077,30.7692308 L1057.23077,13.8461538 L1061.84615,13.8461538 Z M1080.30769,20.3707692 L1080.30769,30.7692308 L1075.69231,30.7692308 L1075.69231,22.1476923 C1075.69231,16.9661538 1069.53846,17.3584615 1069.53846,22.1476923 L1069.53846,30.7692308 L1064.92308,30.7692308 L1064.92308,13.8461538 L1069.53846,13.8461538 L1069.53846,16.5615385 C1071.68615,12.5830769 1080.30769,12.2892308 1080.30769,20.3707692 Z M1059.53846,6.46769231 C1061.02462,6.46769231 1062.23077,7.68307692 1062.23077,9.18153846 C1062.23077,10.68 1061.02615,11.8953846 1059.53846,11.8953846 C1058.05231,11.8953846 1056.84615,10.68 1056.84615,9.18153846 C1056.84615,7.68307692 1058.05231,6.46769231 1059.53846,6.46769231 Z" id="LinkedIn-Icon" fill="#222222"></path>
            </g>
        </g>
    </g>
</svg>