<svg width="40" height="28" viewBox="0 0 51 28" fill="none" xmlns="http://www.w3.org/2000/svg">
<circle cx="14" cy="14" r="12.25" stroke="#111111" stroke-width="3.5"/>
<path d="M42.6475 14C42.6475 17.3582 41.9107 20.3117 40.8063 22.3627C39.6635 24.4849 38.3779 25.25 37.397 25.25C36.416 25.25 35.1305 24.4849 33.9877 22.3627C32.8832 20.3117 32.1465 17.3582 32.1465 14C32.1465 10.6418 32.8832 7.68829 33.9877 5.63733C35.1305 3.51512 36.416 2.75 37.397 2.75C38.3779 2.75 39.6635 3.51512 40.8063 5.63733C41.9107 7.68829 42.6475 10.6418 42.6475 14Z" stroke="#111111" stroke-width="3.5"/>
<mask id="path-3-inside-1_2_5" fill="white">
<ellipse cx="48.7998" cy="14" rx="2.20015" ry="12"/>
</mask>
<path d="M47.4999 14C47.4999 17.1687 47.2625 19.9475 46.9129 21.8541C46.7328 22.8361 46.5534 23.4146 46.4449 23.665C46.3849 23.8033 46.425 23.6566 46.6365 23.4206C46.837 23.1967 47.5611 22.5 48.7998 22.5V29.5C50.3422 29.5 51.3628 28.6354 51.8499 28.0918C52.3478 27.5361 52.6642 26.9179 52.8674 26.449C53.2854 25.4849 53.58 24.306 53.7981 23.1165C54.2448 20.68 54.4999 17.4587 54.4999 14H47.4999ZM48.7998 22.5C50.0384 22.5 50.7625 23.1967 50.9631 23.4206C51.1745 23.6566 51.2146 23.8033 51.1546 23.665C51.0461 23.4146 50.8667 22.8361 50.6866 21.8541C50.3371 19.9475 50.0996 17.1687 50.0996 14H43.0996C43.0996 17.4587 43.3547 20.68 43.8014 23.1165C44.0195 24.306 44.3142 25.4849 44.7321 26.449C44.9354 26.9179 45.2517 27.5361 45.7496 28.0918C46.2367 28.6354 47.2573 29.5 48.7998 29.5V22.5ZM50.0996 14C50.0996 10.8313 50.3371 8.05255 50.6866 6.14591C50.8667 5.16391 51.0461 4.58541 51.1546 4.33504C51.2146 4.19672 51.1745 4.34339 50.9631 4.57939C50.7625 4.80328 50.0384 5.5 48.7998 5.5V-1.5C47.2573 -1.5 46.2367 -0.635386 45.7496 -0.0917986C45.2517 0.46391 44.9354 1.08208 44.7321 1.551C44.3142 2.5151 44.0195 3.69396 43.8014 4.88353C43.3547 7.32004 43.0996 10.5413 43.0996 14H50.0996ZM48.7998 5.5C47.5611 5.5 46.837 4.80328 46.6365 4.57939C46.425 4.34339 46.3849 4.19672 46.4449 4.33504C46.5534 4.58541 46.7328 5.16391 46.9129 6.14591C47.2625 8.05255 47.4999 10.8313 47.4999 14H54.4999C54.4999 10.5413 54.2448 7.32004 53.7981 4.88353C53.58 3.69396 53.2854 2.5151 52.8674 1.551C52.6642 1.08208 52.3478 0.46391 51.8499 -0.0917986C51.3628 -0.635386 50.3422 -1.5 48.7998 -1.5V5.5Z" fill="#111111" mask="url(#path-3-inside-1_2_5)"/>
</svg>
