<?xml version="1.0" encoding="UTF-8"?>
<svg width="32px" height="40px" viewBox="0 0 32 40" version="1.1" xmlns="http://www.w3.org/2000/svg" xmlns:xlink="http://www.w3.org/1999/xlink">
    <title>E526CF3B-51EF-408D-B80A-2CA0CB75FA06</title>
    <g id="**-Website-Idea-2" stroke="none" stroke-width="1" fill="none" fill-rule="evenodd">
        <g id="Landing-Page-Spec" transform="translate(-1288.000000, -50.000000)">
            <g id="Page-Header" transform="translate(120.000000, 50.000000)">
                <path d="M1190.85714,0 L1200,8.88888889 L1200,37.7777778 C1200,38.9539397 1199.06015,39.9166863 1197.87078,39.9948733 L1197.71429,40 L1170.28571,40 C1169.07595,40 1168.08569,39.0862602 1168.00527,37.9299248 L1168,37.7777778 L1168,2.22222222 C1168,1.04606025 1168.93985,0.0833136632 1170.12922,0.00512672844 L1170.28571,0 L1190.85714,0 Z M1188.571,3.333 L1171.42857,3.33333333 L1171.42857,36.6666667 L1196.57143,36.6666667 L1196.571,11.111 L1188.57143,11.1111111 L1188.571,3.333 Z M1179.02362,17.067508 C1181.4455,17.067508 1181.4455,17.067508 1182.56529,18.6560497 C1183.18378,19.5479768 1183.18378,19.5479768 1183.22935,20.4464143 L1183.22935,20.4464143 L1181.22414,20.4464143 L1181.16608,20.2561507 C1180.98512,19.7060869 1180.98512,19.7060869 1180.72284,19.4047476 C1180.17597,18.7797476 1180.17597,18.7797476 1179.10175,18.7797476 C1178.008,18.7797476 1178.008,18.7797476 1177.37649,19.6619091 C1176.74498,20.5440705 1176.74498,20.5440705 1176.74498,22.1586538 C1176.74498,23.7732372 1176.74498,23.7732372 1177.4123,24.5772736 C1178.07961,25.3813101 1178.07961,25.3813101 1179.10826,25.3813101 C1180.16295,25.3813101 1180.16295,25.3813101 1180.71633,24.6912059 C1181.02232,24.3201122 1181.02232,24.3201122 1181.22414,23.5779247 L1181.22414,23.5779247 L1183.20982,23.5779247 L1183.16079,23.8353574 C1182.86016,25.2288578 1182.86016,25.2288578 1181.87844,26.130008 C1180.80748,27.1130809 1180.80748,27.1130809 1179.1343,27.1130809 C1177.06399,27.1130809 1177.06399,27.1130809 1175.87909,25.7849559 C1174.6942,24.4503205 1174.6942,24.4503205 1174.6942,22.1261018 C1174.6942,19.6130809 1174.6942,19.6130809 1176.04185,18.2524038 C1177.21373,17.067508 1177.21373,17.067508 1179.02362,17.067508 Z M1187.00539,17.2497997 L1189.08873,24.5349559 L1191.19159,17.2497997 L1193.27493,17.2497997 L1190.00019,26.8461538 L1188.10565,26.8461538 L1184.86347,17.2497997 L1187.00539,17.2497997 Z" id="CV-Icon" fill="#FFFFFF"></path>
            </g>
        </g>
    </g>
</svg>