<?xml version="1.0" encoding="UTF-8"?>
<svg width="50px" height="50px" viewBox="0 0 50 50" version="1.1" xmlns="http://www.w3.org/2000/svg" xmlns:xlink="http://www.w3.org/1999/xlink">
    <title>Group</title>
    <g id="**-Website-Idea-2" stroke="none" stroke-width="1" fill="none" fill-rule="evenodd">
        <g id="Dribbble-Hover" transform="translate(-1103.000000, -46.000000)">
            <g id="Group" transform="translate(1103.000000, 46.000000)">
                <circle id="Oval" cx="25" cy="25" r="23"></circle>
                <path d="M39.3889583,23.6339583 C37.1789583,23.6166667 34.9639583,23.8935417 32.7566667,24.1027083 C32.169375,24.1583333 31.8145833,24.1489583 31.5535417,23.51125 C30.97625,22.1008333 30.3020833,20.7302083 29.608125,19.2139583 C33.8525,17.3404167 37.7360417,15.0120833 41.12625,11.93 C43.58375,13.8797917 46.2022917,20.8416667 45.78,24.2022917 C43.6485417,23.999375 41.52,23.650625 39.3889583,23.6339583 M37.5116667,41.7547917 C36.2052083,37.1433333 34.9170833,32.596875 33.6089583,27.9797917 C37.5964583,27.2952083 41.5945833,27.496875 45.6560417,28.4229167 C44.6370833,34.00625 41.893125,38.3985417 37.5116667,41.7547917 M33.0491667,44.3335417 C26.180625,47.245625 17.685,46.1029167 11.9695833,41.2789583 C16.6272917,35.5608333 22.3016667,31.3235417 29.4297917,28.9435417 C31.259375,33.6864583 32.6345833,38.4022917 33.5183333,43.26 C33.6047917,43.735625 33.6189583,44.0922917 33.0491667,44.3335417 M4.090625,24.1745833 C11.5010417,24.0291667 18.72,23.0633333 25.7925,20.6760417 C26.5129167,22.2020833 27.2025,23.6622917 27.9385417,25.2210417 C20.339375,27.8077083 14.1835417,32.3354167 9.03291667,38.50375 C5.58645833,34.3233333 3.96354167,29.6225 4.090625,24.1745833 M16.76,5.81416667 C19.1347917,9.47458333 21.5366667,13.176875 24.0258333,17.0133333 C17.6120833,19.0785417 11.304375,19.981875 4.86604167,20.1164583 C4.60708333,15.7577083 10.8541667,8.18479167 16.76,5.81416667 M38.4364583,8.94708333 C35.2347917,11.8691667 31.6827083,13.96375 27.8391667,15.5947917 C25.5102083,11.9197917 23.1991667,8.27333333 20.7952083,4.48 C27.3702083,3.31395833 33.17625,4.77583333 38.4364583,8.94708333 M25,0 C11.1927083,0 0,11.1929167 0,25 C0,38.8072917 11.1927083,50 25,50 C38.8070833,50 50,38.8072917 50,25 C50,11.1929167 38.8070833,0 25,0" id="Combined-Shape-Copy-5" fill="#FD6B4F"></path>
            </g>
        </g>
    </g>
</svg>