<?xml version="1.0" encoding="UTF-8"?>
<svg width="50px" height="39px" viewBox="0 0 50 39" version="1.1" xmlns="http://www.w3.org/2000/svg" xmlns:xlink="http://www.w3.org/1999/xlink">
    <title>Group 2</title>
    <g id="**-Website-Idea-2" stroke="none" stroke-width="1" fill="none" fill-rule="evenodd">
        <g id="Email-Hover" transform="translate(-1223.000000, -52.000000)">
            <g id="Group-2" transform="translate(1223.000000, 52.000000)">
                <rect id="Rectangle" x="0" y="0" width="50" height="39" rx="4"></rect>
                <path d="M46.1538462,0 C48.2780183,0 50,1.74608948 50,3.9 L50,3.9 L50,35.1 C50,37.2539105 48.2780183,39 46.1538462,39 L46.1538462,39 L3.84615385,39 C1.72198173,39 0,37.2539105 0,35.1 L0,35.1 L0,3.9 C0,1.74608948 1.72198173,0 3.84615385,0 L3.84615385,0 Z M46.153,6.281 L25,22.6001677 L3.846,6.281 L3.84615385,35.1 L46.1538462,35.1 L46.153,6.281 Z M42.887,3.9 L7.112,3.9 L25,17.6982 L42.887,3.9 Z" id="Combined-Shape-Copy-6" fill="#CDF8DB"></path>
            </g>
        </g>
    </g>
</svg>