<?xml version="1.0" encoding="UTF-8"?>
<svg width="40px" height="50px" viewBox="0 0 40 50" version="1.1" xmlns="http://www.w3.org/2000/svg" xmlns:xlink="http://www.w3.org/1999/xlink">
    <title>Group</title>
    <g id="**-Website-Idea-2" stroke="none" stroke-width="1" fill="none" fill-rule="evenodd">
        <g id="Resume-Hover" transform="translate(-1284.000000, -46.000000)">
            <g id="Group" transform="translate(1284.000000, 46.000000)">
                <path d="M4.8,1 L28.1428571,1 L28.1428571,1 L39,12.0089846 L39,45.2 C39,47.298682 37.298682,49 35.2,49 L4.8,49 C2.70131795,49 1,47.298682 1,45.2 L1,4.8 C1,2.70131795 2.70131795,1 4.8,1 Z" id="Rectangle"></path>
                <path d="M28.5714286,0 L40,11.1111111 L40,47.2222222 C40,48.6995271 38.8138134,49.9074791 37.3169063,49.9949305 L37.1428571,50 L2.85714286,50 C1.33762926,50 0.0951643857,48.846763 0.00521433137,47.3914367 L0,47.2222222 L0,2.77777778 C0,1.30047289 1.18618659,0.0925209305 2.68309368,0.00506948883 L2.85714286,0 L28.5714286,0 Z M25.714,4.166 L4.28571429,4.16666667 L4.28571429,45.8333333 L35.7142857,45.8333333 L35.714,13.888 L25.7142857,13.8888889 L25.714,4.166 Z M13.7795294,21.084385 C16.8068731,21.084385 16.8068731,21.084385 18.2066127,23.0700621 C18.9797247,24.184971 18.9797247,24.184971 19.0366908,25.3080178 L19.0366908,25.3080178 L16.5301804,25.3080178 L16.4576026,25.0701883 C16.2313988,24.3826086 16.2313988,24.3826086 15.9035528,24.0059345 C15.2199591,23.2246845 15.2199591,23.2246845 13.8771856,23.2246845 C12.5099981,23.2246845 12.5099981,23.2246845 11.7206101,24.3273863 C10.9312221,25.4300881 10.9312221,25.4300881 10.9312221,27.4483173 C10.9312221,29.4665465 10.9312221,29.4665465 11.7653692,30.471592 C12.5995164,31.4766376 12.5995164,31.4766376 13.8853237,31.4766376 C15.203683,31.4766376 15.203683,31.4766376 15.8954148,30.6140074 C16.2779018,30.1501402 16.2779018,30.1501402 16.5301804,29.2224058 L16.5301804,29.2224058 L19.0122768,29.2224058 L18.9562015,29.5198048 C18.5837787,31.2781951 18.5837787,31.2781951 17.3480515,32.41251 C16.0093471,33.6413512 16.0093471,33.6413512 13.9178757,33.6413512 C11.3299851,33.6413512 11.3299851,33.6413512 9.84886533,31.9811949 C8.36774554,30.3129006 8.36774554,30.3129006 8.36774554,27.4076272 C8.36774554,24.2663512 8.36774554,24.2663512 10.0523158,22.5655048 C11.5171596,21.084385 11.5171596,21.084385 13.7795294,21.084385 Z M23.756743,21.3122496 L26.3609096,30.4186949 L28.9894904,21.3122496 L31.593657,21.3122496 L27.5002326,33.3076923 L25.1320685,33.3076923 L21.0793341,21.3122496 L23.756743,21.3122496 Z" id="Combined-Shape-Copy-8" fill="#71BBFF"></path>
            </g>
        </g>
    </g>
</svg>