<?xml version="1.0" encoding="UTF-8"?>
<svg width="50px" height="50px" viewBox="0 0 50 50" version="1.1" xmlns="http://www.w3.org/2000/svg" xmlns:xlink="http://www.w3.org/1999/xlink">
    <title>Group</title>
    <g id="**-Website-Idea-2" stroke="none" stroke-width="1" fill="none" fill-rule="evenodd">
        <g id="LinkedIn-Hover" transform="translate(-1163.000000, -46.000000)">
            <g id="Group" transform="translate(1163.000000, 46.000000)">
                <rect id="Rectangle" fill="#FFC7E8" x="1" y="1" width="48" height="48" rx="11.52"></rect>
                <path d="M38.4615385,0 C44.8340548,0 50,5.16594519 50,11.5384615 L50,11.5384615 L50,38.4615385 C50,44.8340548 44.8340548,50 38.4615385,50 L38.4615385,50 L11.5384615,50 C5.16594519,50 0,44.8340548 0,38.4615385 L0,38.4615385 L0,11.5384615 C0,5.16594519 5.16594519,0 11.5384615,0 L11.5384615,0 Z M38.4615385,3.84615385 L11.5384615,3.84615385 C7.29011731,3.84615385 3.84615385,7.29011731 3.84615385,11.5384615 L3.84615385,11.5384615 L3.84615385,38.4615385 C3.84615385,42.7098827 7.29011731,46.1538462 11.5384615,46.1538462 L11.5384615,46.1538462 L38.4615385,46.1538462 C42.7098827,46.1538462 46.1538462,42.7098827 46.1538462,38.4615385 L46.1538462,38.4615385 L46.1538462,11.5384615 C46.1538462,7.29011731 42.7098827,3.84615385 38.4615385,3.84615385 L38.4615385,3.84615385 Z M17.3076923,17.3076923 L17.3076923,38.4615385 L11.5384615,38.4615385 L11.5384615,17.3076923 L17.3076923,17.3076923 Z M26.9230769,17.3076923 L26.9230769,20.7019231 C29.6076923,15.7288462 40.3846154,15.3615385 40.3846154,25.4634615 L40.3846154,38.4615385 L34.6153846,38.4615385 L34.6153846,27.6846154 C34.6153846,21.2076923 26.9230769,21.6980769 26.9230769,27.6846154 L26.9230769,38.4615385 L21.1538462,38.4615385 L21.1538462,17.3076923 L26.9230769,17.3076923 Z M14.4230769,8.08461538 C16.2807692,8.08461538 17.7884615,9.60384615 17.7884615,11.4769231 C17.7884615,13.35 16.2826923,14.8692308 14.4230769,14.8692308 C12.5653846,14.8692308 11.0576923,13.35 11.0576923,11.4769231 C11.0576923,9.60384615 12.5653846,8.08461538 14.4230769,8.08461538 Z" id="Combined-Shape-Copy-7" fill="#28282A"></path>
            </g>
        </g>
    </g>
</svg>