<svg width="290" height="288" viewBox="0 0 290 288" fill="none" xmlns="http://www.w3.org/2000/svg">
<path d="M122.138 267.589L119.893 284.785L122.669 285.147L123.608 277.955L129.395 278.71L128.456 285.902L131.22 286.263L133.464 269.067L130.7 268.707L129.7 276.372L123.913 275.616L124.913 267.951L122.138 267.589Z" fill="#FFD04F"/>
<path d="M104.322 263.075L101.544 262.224L101.484 262.418C101.539 262.783 101.54 263.199 101.489 263.665C101.427 264.136 101.312 264.649 101.142 265.203L99.4651 270.681C99.2513 271.379 99.192 272.034 99.2875 272.644C99.3806 273.262 99.6014 273.816 99.95 274.304C100.299 274.793 100.761 275.221 101.338 275.589C101.905 275.962 102.549 276.259 103.27 276.479C104.075 276.726 104.825 276.839 105.52 276.82C106.206 276.805 106.815 276.685 107.35 276.458C107.897 276.244 108.354 275.943 108.722 275.558C109.089 275.172 109.352 274.733 109.511 274.242L106.777 273.405C106.705 273.641 106.596 273.848 106.45 274.027C106.294 274.212 106.102 274.349 105.876 274.437C105.645 274.541 105.379 274.596 105.078 274.604C104.769 274.609 104.428 274.555 104.056 274.441C103.646 274.315 103.302 274.152 103.023 273.95C102.735 273.754 102.509 273.527 102.347 273.27C102.2 273.017 102.113 272.745 102.086 272.455C102.051 272.162 102.082 271.856 102.18 271.537L102.435 270.705L104.416 271.312C105.305 271.584 106.127 271.745 106.885 271.794C107.634 271.841 108.297 271.778 108.873 271.605C109.494 271.422 110.021 271.11 110.455 270.67C110.879 270.235 111.194 269.68 111.401 269.004C111.561 268.48 111.609 267.959 111.543 267.441C111.468 266.927 111.289 266.453 111.007 266.018C110.735 265.578 110.366 265.183 109.9 264.832C109.425 264.487 108.868 264.217 108.23 264.022C107.835 263.901 107.455 263.826 107.091 263.798C106.726 263.769 106.374 263.778 106.036 263.824C105.701 263.862 105.388 263.933 105.1 264.035C104.801 264.143 104.526 264.267 104.276 264.406C104.31 264.159 104.338 263.918 104.36 263.684C104.372 263.455 104.359 263.252 104.322 263.075ZM107.037 266.048C107.386 266.155 107.677 266.29 107.91 266.453C108.14 266.623 108.319 266.81 108.447 267.016C108.575 267.221 108.652 267.444 108.678 267.684C108.702 267.933 108.676 268.182 108.599 268.432C108.506 268.736 108.369 268.993 108.188 269.204C108 269.412 107.765 269.568 107.484 269.673C107.163 269.799 106.77 269.849 106.305 269.823C105.837 269.804 105.307 269.704 104.715 269.523L102.961 268.986L103.658 266.708C103.818 266.541 104.016 266.394 104.254 266.268C104.492 266.141 104.759 266.044 105.053 265.977C105.348 265.909 105.665 265.877 106.004 265.882C106.336 265.884 106.68 265.939 107.037 266.048Z" fill="#FFD04F"/>
<path d="M88.3174 256.601L86.0705 255.475L75.783 264.735L78.424 266.058L85.4338 259.113L85.9883 258.431L85.7745 259.283L84.4406 269.072L87.0815 270.396L88.3174 256.601Z" fill="#FFD04F"/>
<path d="M68.7143 244.5C67.7018 243.759 66.6946 243.327 65.6926 243.204C64.6842 243.076 63.8241 243.136 63.1123 243.382L63.4704 245.474C64.0909 245.299 64.73 245.279 65.3875 245.416C66.0403 245.559 66.6519 245.84 67.2222 246.257C67.6387 246.562 67.9716 246.914 68.2208 247.312C68.4637 247.707 68.6195 248.126 68.6882 248.569C68.7664 249.001 68.7666 249.424 68.6889 249.839C68.6112 250.255 68.4411 250.716 68.1786 251.222L68.1435 251.27L60.9347 245.995L60.2102 246.985C59.6662 247.728 59.2638 248.486 59.0029 249.26C58.742 250.033 58.6405 250.79 58.6985 251.531C58.7611 252.266 58.9893 252.969 59.3832 253.641C59.7723 254.319 60.3417 254.933 61.0914 255.482C61.7642 255.974 62.4924 256.31 63.2759 256.49C64.0483 256.671 64.8299 256.692 65.6208 256.553C66.4117 256.413 67.1767 256.107 67.916 255.635C68.6553 255.162 69.3228 254.519 69.9183 253.706L70.2067 253.311C70.7272 252.6 71.0908 251.848 71.2974 251.055C71.493 250.263 71.5275 249.476 71.4007 248.695C71.2787 247.907 70.9943 247.153 70.5475 246.432C70.0943 245.707 69.4832 245.063 68.7143 244.5ZM62.4656 253.624C62.0811 253.343 61.794 253.029 61.6041 252.684C61.4031 252.34 61.2862 251.988 61.2534 251.63C61.2189 251.26 61.2574 250.885 61.3688 250.504C61.4756 250.13 61.6392 249.792 61.8596 249.491L61.9721 249.337L66.8645 252.917C66.5033 253.263 66.1341 253.539 65.7569 253.745C65.3798 253.951 65.0002 254.086 64.6182 254.151C64.2409 254.21 63.8723 254.196 63.5124 254.11C63.1413 254.025 62.7924 253.863 62.4656 253.624Z" fill="#FFD04F"/>
<path d="M45.8402 214.942C45.4838 214.426 45.0809 214.038 44.6318 213.779C44.1892 213.516 43.7369 213.336 43.275 213.24C42.8196 213.139 42.3719 213.106 41.932 213.14C41.494 213.162 41.095 213.206 40.7349 213.272L24.8076 216.325L26.6012 218.922L34.8753 216.985L36.3167 216.641L35.4009 217.809L30.7435 224.92L32.5236 227.497L39.537 215.981L41.2616 215.774C41.4549 215.746 41.6463 215.73 41.8356 215.725C42.0204 215.713 42.2429 215.714 42.503 215.727C42.7677 215.747 43.0285 215.803 43.2855 215.896C43.549 215.984 43.7598 216.143 43.9177 216.371C43.9899 216.476 44.0781 216.617 44.1824 216.796C44.2887 216.964 44.3836 217.116 44.4674 217.251L46.5234 216.309C46.4383 216.088 46.3421 215.865 46.2349 215.639C46.1297 215.403 45.9982 215.171 45.8402 214.942Z" fill="#FFD04F"/>
<path d="M25.3256 204.529L25.5522 204.423C26.4083 204.023 27.1389 203.533 27.744 202.952C28.3491 202.372 28.8086 201.723 29.1225 201.007C29.4397 200.298 29.5915 199.534 29.5777 198.717C29.5639 197.9 29.357 197.063 28.957 196.207C28.5604 195.358 28.0547 194.67 27.44 194.142C26.8219 193.607 26.1391 193.233 25.3917 193.022C24.6442 192.81 23.8537 192.75 23.02 192.841C22.1863 192.933 21.3415 193.179 20.4854 193.579L20.2588 193.684C19.4099 194.081 18.6829 194.57 18.0778 195.15C17.4655 195.734 17.0007 196.381 16.6835 197.09C16.3696 197.806 16.2196 198.573 16.2334 199.391C16.2438 200.201 16.449 201.034 16.849 201.89C17.2489 202.746 17.7563 203.438 18.371 203.966C18.9857 204.494 19.6668 204.864 20.4143 205.075C21.1651 205.294 21.961 205.356 22.8018 205.261C23.6355 205.17 24.4768 204.926 25.3256 204.529ZM24.3473 201.844L24.1207 201.95C23.6099 202.189 23.0955 202.363 22.5775 202.474C22.0561 202.577 21.5637 202.593 21.1003 202.52C20.6403 202.454 20.2236 202.294 19.8502 202.039C19.4736 201.777 19.171 201.401 18.9424 200.912C18.7105 200.416 18.6165 199.942 18.6604 199.493C18.701 199.035 18.8421 198.606 19.0836 198.204C19.332 197.816 19.663 197.455 20.0768 197.122C20.4907 196.788 20.953 196.502 21.4637 196.263L21.6903 196.158C22.2155 195.912 22.7388 195.738 23.2601 195.634C23.7782 195.524 24.2672 195.501 24.7273 195.567C25.1873 195.632 25.6057 195.796 25.9824 196.058C26.3518 196.324 26.6492 196.698 26.8744 197.18C27.1063 197.676 27.2056 198.151 27.1722 198.605C27.1316 199.062 26.9889 199.488 26.7439 199.883C26.5023 200.285 26.1746 200.653 25.7608 200.987C25.3436 201.313 24.8724 201.599 24.3473 201.844Z" fill="#FFD04F"/>
<path d="M20.5229 173.527L19.8341 171.036L7.41296 174.47L8.17475 177.225L16.9683 174.794C17.2275 174.838 17.4739 174.91 17.7076 175.01C17.9336 175.112 18.143 175.244 18.3357 175.405C18.5544 175.6 18.753 175.841 18.9316 176.13C19.1026 176.42 19.2431 176.764 19.3531 177.162C19.4589 177.545 19.5012 177.892 19.48 178.202C19.4588 178.513 19.355 178.793 19.1685 179.042C18.9897 179.289 18.7206 179.508 18.3612 179.698C17.9942 179.89 17.5237 180.065 16.9497 180.224L9.56817 182.265L10.3268 185.009L17.6853 182.974C18.619 182.716 19.394 182.391 20.0104 181.998C20.6191 181.607 21.0859 181.165 21.4108 180.671C21.7335 180.17 21.9252 179.627 21.9859 179.042C22.0367 178.451 21.9733 177.834 21.7955 177.191C21.5882 176.441 21.2287 175.812 20.7171 175.302C20.1979 174.795 19.5702 174.417 18.8339 174.167L20.5229 173.527Z" fill="#FFD04F"/>
<path d="M14.8171 133.979C14.7785 134.573 14.6275 135.06 14.364 135.441C14.1006 135.822 13.7633 136.114 13.3522 136.318C12.9564 136.531 12.5056 136.673 11.9997 136.744C11.4864 136.806 10.9683 136.82 10.4453 136.786L10.0293 136.759C9.51427 136.725 9.01024 136.645 8.51723 136.517C8.02474 136.382 7.59234 136.179 7.22005 135.908C6.84672 135.653 6.55382 135.323 6.34134 134.92C6.12145 134.508 6.03081 134.004 6.06943 133.41C6.09466 133.022 6.18544 132.666 6.34177 132.342C6.49861 132.01 6.6999 131.728 6.94565 131.498C7.19088 131.275 7.47213 131.11 7.78939 131.003C8.10716 130.889 8.44037 130.843 8.78901 130.865L8.96279 128.191C8.25018 128.137 7.58798 128.225 6.9762 128.456C6.36494 128.679 5.82992 129.014 5.37115 129.462C4.91238 129.909 4.54252 130.458 4.26156 131.108C3.98111 131.751 3.81566 132.46 3.7652 133.236C3.70135 134.219 3.81955 135.094 4.11979 135.861C4.41262 136.621 4.83599 137.269 5.3899 137.806C5.94381 138.343 6.60475 138.764 7.37271 139.069C8.14119 139.365 8.96519 139.542 9.84471 139.599L10.2607 139.626C11.1482 139.684 11.9923 139.612 12.7932 139.409C13.5862 139.206 14.2921 138.874 14.9109 138.413C15.5292 137.96 16.0366 137.376 16.4331 136.662C16.8222 135.939 17.049 135.082 17.1133 134.092C17.1597 133.379 17.0888 132.694 16.9007 132.037C16.7052 131.372 16.4177 130.776 16.0381 130.25C15.6738 129.733 15.2276 129.314 14.6994 128.994C14.1638 128.664 13.5828 128.484 12.9563 128.451L12.7825 131.125C13.1074 131.146 13.3996 131.241 13.6593 131.409C13.9194 131.569 14.1405 131.778 14.3227 132.037C14.5043 132.303 14.6397 132.606 14.729 132.946C14.8109 133.278 14.8403 133.622 14.8171 133.979Z" fill="#FFD04F"/>
<path d="M1 113.792L3.30658 114.338L4.244 110.374L17.446 113.496L16.5085 117.46L18.8035 118.003L21.3006 107.443L19.0056 106.901L18.1065 110.702L2.598 107.035L1 113.792Z" fill="#FFD04F"/>
<path d="M18.1036 95.9503L18.334 96.0476C19.2045 96.4151 20.058 96.629 20.8945 96.6892C21.731 96.7493 22.5203 96.656 23.2624 96.4091C24.0014 96.1695 24.6696 95.7707 25.2672 95.2128C25.8648 94.655 26.3473 93.9408 26.7149 93.0703C27.0794 92.2071 27.2516 91.3705 27.2316 90.5605C27.2147 89.7432 27.0345 88.9862 26.6909 88.2894C26.3472 87.5927 25.8622 86.9656 25.2357 86.408C24.6092 85.8504 23.8607 85.3878 22.9902 85.0203L22.7598 84.923C21.8967 84.5585 21.0468 84.3462 20.2103 84.286C19.3665 84.2228 18.5751 84.3109 17.8361 84.5505C17.094 84.7974 16.4242 85.1998 15.8266 85.7577C15.2321 86.3083 14.7511 87.0188 14.3835 87.8893C14.016 88.7598 13.8422 89.6 13.8622 90.41C13.8822 91.2201 14.064 91.9734 14.4076 92.6702C14.7481 93.3742 15.2353 94.0065 15.8691 94.5672C16.4956 95.1248 17.2404 95.5858 18.1036 95.9503ZM19.4413 93.4252L19.2109 93.3279C18.6915 93.1086 18.2173 92.8437 17.7881 92.5332C17.3621 92.2154 17.0208 91.8601 16.7643 91.4674C16.5047 91.0819 16.3445 90.6652 16.2837 90.2172C16.226 89.7619 16.3022 89.2855 16.5122 88.7881C16.7253 88.2834 17.0136 87.8966 17.3771 87.6277C17.7437 87.3515 18.1571 87.1684 18.6175 87.0784C19.0717 87.003 19.5612 87.0071 20.0861 87.0908C20.611 87.1746 21.1331 87.3261 21.6525 87.5454L21.8829 87.6427C22.4169 87.8682 22.8969 88.1398 23.323 88.4576C23.7521 88.7681 24.0965 89.1161 24.3561 89.5015C24.6157 89.8869 24.7743 90.3073 24.832 90.7626C24.8824 91.2148 24.8041 91.686 24.5972 92.1761C24.3841 92.6808 24.0979 93.0728 23.7386 93.3521C23.3721 93.6283 22.9601 93.8077 22.5029 93.8905C22.0425 93.9805 21.5499 93.9837 21.025 93.8999C20.5032 93.8089 19.9753 93.6506 19.4413 93.4252Z" fill="#FFD04F"/>
<path d="M34.9409 69.7588C35.1151 69.8697 35.2502 70.0122 35.3464 70.1864C35.4402 70.3496 35.4983 70.5466 35.5208 70.7774C35.5488 71.0588 35.5061 71.3846 35.3928 71.7549C35.2838 72.1184 35.0971 72.5079 34.8327 72.9232C34.6366 73.2313 34.4124 73.5169 34.1603 73.7799C33.9014 74.0387 33.6237 74.2384 33.3271 74.3791C33.0329 74.5307 32.7208 74.6144 32.3907 74.6302C32.0582 74.635 31.7181 74.5409 31.3704 74.3478L29.8865 76.6788C30.3353 76.9645 30.8457 77.1387 31.4175 77.2015C31.9893 77.2643 32.5749 77.1947 33.1742 76.9926C33.7759 76.8014 34.3724 76.4705 34.9638 75.9998C35.5595 75.5224 36.1068 74.8919 36.6056 74.1082C37.0533 73.4049 37.3802 72.714 37.5861 72.0356C37.792 71.3572 37.8831 70.7187 37.8595 70.12C37.8315 69.5281 37.687 68.9937 37.4258 68.5168C37.1688 68.0332 36.7992 67.6379 36.3169 67.3309C35.8213 67.0154 35.3243 66.8497 34.8262 66.8338C34.328 66.8179 33.8213 66.9189 33.3061 67.1369C32.8042 67.3634 32.2914 67.6958 31.7676 68.1342C31.2438 68.5726 30.7106 69.085 30.1679 69.6714C29.7848 70.0958 29.4428 70.4335 29.1419 70.6844C28.8453 70.9285 28.5813 71.0993 28.3498 71.1967C28.1166 71.3118 27.9028 71.3593 27.7086 71.3391C27.5076 71.3148 27.3133 71.2429 27.1258 71.1235C26.9449 71.0084 26.8018 70.8561 26.6965 70.6667C26.5845 70.473 26.5236 70.2507 26.5139 69.9998C26.4908 69.7404 26.5276 69.4532 26.6245 69.1384C26.719 68.8126 26.8813 68.4688 27.1115 68.1071C27.3631 67.7119 27.6363 67.4011 27.9311 67.1745C28.2192 66.9438 28.51 66.79 28.8035 66.7133C29.0532 66.6464 29.2974 66.6324 29.5361 66.6714C29.7724 66.6995 29.9911 66.7774 30.192 66.9054L31.7206 64.504C31.2316 64.1927 30.7079 64.01 30.1495 63.9557C29.591 63.9014 29.0319 63.9738 28.4723 64.1729C27.9083 64.3786 27.3559 64.7141 26.815 65.1793C26.2675 65.6403 25.7635 66.2325 25.303 66.9559C24.8723 67.6324 24.5671 68.3041 24.3874 68.9709C24.2119 69.6311 24.1512 70.2513 24.2054 70.8317C24.2552 71.4188 24.4129 71.9474 24.6783 72.4176C24.9414 72.8768 25.2939 73.2471 25.736 73.5285C26.1982 73.8227 26.6696 73.9769 27.1501 73.9909C27.6306 74.005 28.1153 73.9089 28.6044 73.7025C29.1111 73.4979 29.6224 73.1974 30.1383 72.801C30.6584 72.398 31.1825 71.9221 31.7106 71.3735C32.1241 70.9308 32.4911 70.5761 32.8115 70.3094C33.1318 70.0427 33.4184 69.8439 33.6711 69.713C33.9288 69.604 34.1568 69.5562 34.3554 69.5697C34.5582 69.5764 34.7533 69.6394 34.9409 69.7588Z" fill="#FFD04F"/>
<path d="M49.6686 56.9189C50.5091 55.9876 51.0419 55.0298 51.2669 54.0457C51.4973 53.0556 51.5262 52.194 51.3537 51.4607L49.2359 51.603C49.3471 52.2382 49.3011 52.8759 49.0978 53.5159C48.8886 54.1507 48.5472 54.7304 48.0738 55.2551C47.728 55.6382 47.3439 55.9334 46.9217 56.1406C46.5047 56.3418 46.0719 56.454 45.6234 56.477C45.1866 56.5106 44.7655 56.4675 44.3602 56.3478C43.9549 56.228 43.5137 56.0117 43.0367 55.6988L42.9925 55.6589L48.9773 49.0273L48.0666 48.2054C47.3828 47.5883 46.6696 47.1104 45.927 46.7718C45.1844 46.4332 44.4416 46.2548 43.6985 46.2367C42.9614 46.2239 42.2385 46.379 41.5298 46.7021C40.8152 47.0198 40.1467 47.5235 39.5243 48.2132C38.9657 48.8321 38.5569 49.5221 38.298 50.2831C38.0384 51.0329 37.9376 51.8083 37.9956 52.6093C38.0535 53.4103 38.2796 54.2026 38.674 54.9863C39.0684 55.7701 39.6399 56.4998 40.3885 57.1754L40.751 57.5026C41.4053 58.0931 42.1165 58.5317 42.8846 58.8184C43.652 59.0939 44.431 59.2086 45.2213 59.1624C46.0175 59.1216 46.7969 58.9158 47.5593 58.545C48.3271 58.1683 49.0302 57.6263 49.6686 56.9189ZM41.2317 49.7701C41.5509 49.4164 41.8921 49.1628 42.2552 49.0093C42.6179 48.8445 42.9792 48.7641 43.3392 48.7682C43.7104 48.7716 44.0798 48.8483 44.4473 48.9981C44.8089 49.1426 45.1282 49.3399 45.4052 49.5899L45.5467 49.7176L41.485 54.2182C41.178 53.8235 40.9413 53.4281 40.7748 53.0318C40.6084 52.6356 40.5124 52.2441 40.4869 51.8575C40.4674 51.4762 40.519 51.111 40.6416 50.7617C40.7637 50.4013 40.9604 50.0707 41.2317 49.7701Z" fill="#FFD04F"/>
<path d="M55.9531 41.0779L56.1083 41.2741C56.6847 42.0027 57.3151 42.6076 57.9995 43.0887C58.6789 43.5637 59.3697 43.893 60.0719 44.0766C60.7789 44.2665 61.4819 44.2976 62.1808 44.1699C62.8747 44.0361 63.5299 43.7253 64.1464 43.2376C64.7318 42.7745 65.1649 42.2597 65.4458 41.6933C65.7217 41.1206 65.864 40.5069 65.8725 39.8522L66.8103 40.8265L68.8373 39.2229L57.4868 24.8752L55.2543 26.6413L59.3555 31.8255C58.746 31.7205 58.1531 31.739 57.5769 31.881C57.002 32.0118 56.4344 32.2988 55.8739 32.7422C55.2512 33.2349 54.7917 33.8059 54.4955 34.4553C54.2006 35.0936 54.0617 35.7755 54.0789 36.5011C54.0898 37.2315 54.2531 37.9883 54.5687 38.7713C54.8857 39.5431 55.3472 40.312 55.9531 41.0779ZM58.3408 39.508L58.1856 39.3118C57.826 38.8572 57.5321 38.3962 57.304 37.9286C57.071 37.4549 56.9303 36.9891 56.8819 36.5312C56.8211 36.0832 56.8681 35.6563 57.0228 35.2504C57.1838 34.8395 57.4729 34.4691 57.8901 34.139C58.3883 33.7449 58.888 33.5318 59.3892 33.4998C59.8916 33.4567 60.3903 33.5431 60.8852 33.7591L64.3214 38.1027C64.4226 38.6402 64.3969 39.1516 64.2442 39.6369C64.0866 40.1159 63.7555 40.555 63.2511 40.954C62.8401 41.2792 62.4218 41.4734 61.9961 41.5368C61.5655 41.594 61.136 41.5439 60.7078 41.3866C60.2895 41.2417 59.879 41.0045 59.4766 40.6749C59.0741 40.3453 58.6955 39.9563 58.3408 39.508Z" fill="#FFD04F"/>
<path d="M99.76 28.2541C100.353 28.0481 100.833 27.7632 101.203 27.3993C101.575 27.043 101.869 26.655 102.084 26.2353C102.303 25.8232 102.454 25.4006 102.539 24.9676C102.634 24.5395 102.698 24.1432 102.731 23.7786L104.033 7.61376L101.052 8.6504L100.713 17.1413L100.66 18.6223L99.7786 17.4283L94.1667 11.0444L91.208 12.0732L100.439 21.9022L100.179 23.6194C100.154 23.8131 100.118 24.0019 100.073 24.1858C100.035 24.3671 99.9751 24.5813 99.8929 24.8285C99.8032 25.0782 99.6794 25.3146 99.5216 25.5376C99.3664 25.7681 99.1575 25.929 98.895 26.0203C98.775 26.062 98.6149 26.1093 98.4147 26.1621C98.2246 26.2198 98.0532 26.271 97.9006 26.3156L98.2609 28.5485C98.4966 28.5253 98.7373 28.4921 98.9828 28.4487C99.2385 28.4103 99.4975 28.3454 99.76 28.2541Z" fill="#FFD04F"/>
<path d="M115.266 11.2567L115.308 11.5033C115.465 12.435 115.743 13.2699 116.141 14.0078C116.54 14.7458 117.042 15.3615 117.649 15.855C118.248 16.3497 118.943 16.6993 119.735 16.9039C120.526 17.1084 121.388 17.132 122.32 16.9746C123.244 16.8186 124.042 16.5146 124.714 16.0628C125.395 15.6097 125.937 15.0511 126.34 14.3871C126.743 13.7231 127.012 12.9771 127.146 12.1492C127.28 11.3213 127.268 10.4415 127.111 9.50978L127.069 9.26315C126.913 8.33928 126.636 7.50835 126.237 6.77036C125.837 6.02455 125.338 5.40427 124.739 4.90953C124.132 4.41611 123.433 4.06713 122.642 3.8626C121.858 3.65675 121 3.6325 120.069 3.78987C119.137 3.94724 118.335 4.25183 117.662 4.70365C116.99 5.15547 116.452 5.71339 116.048 6.3774C115.637 7.04274 115.366 7.79328 115.233 8.62901C115.099 9.45692 115.11 10.3328 115.266 11.2567ZM118.115 11.0292L118.073 10.7826C117.979 10.2267 117.948 9.68439 117.979 9.15564C118.019 8.62557 118.135 8.14689 118.329 7.71961C118.514 7.29365 118.78 6.93474 119.125 6.64289C119.478 6.34971 119.921 6.15816 120.453 6.06824C120.994 5.97699 121.475 6.0125 121.897 6.17475C122.327 6.33569 122.703 6.58616 123.026 6.92616C123.334 7.26881 123.593 7.68401 123.804 8.17177C124.016 8.65952 124.168 9.18135 124.262 9.73724L124.304 9.98386C124.4 10.5554 124.429 11.1062 124.39 11.6363C124.358 12.165 124.249 12.6424 124.064 13.0684C123.878 13.4943 123.609 13.8539 123.255 14.1471C122.901 14.4324 122.461 14.6194 121.937 14.708C121.397 14.7992 120.912 14.7683 120.484 14.6152C120.054 14.4543 119.681 14.2031 119.366 13.8618C119.043 13.5218 118.776 13.1079 118.564 12.6202C118.361 12.1311 118.211 11.6008 118.115 11.0292Z" fill="#FFD04F"/>
<path d="M146.426 14.8872H149.011V2L146.152 2V11.1235C146.041 11.3617 145.906 11.58 145.747 11.7785C145.588 11.9691 145.406 12.1359 145.199 12.2788C144.953 12.4376 144.667 12.5646 144.342 12.6599C144.016 12.7473 143.647 12.7909 143.234 12.7909C142.837 12.7909 142.492 12.7393 142.198 12.6361C141.904 12.5329 141.662 12.3582 141.471 12.112C141.281 11.8738 141.142 11.5562 141.055 11.1592C140.967 10.7542 140.924 10.254 140.924 9.65846V2L138.077 2V9.63464C138.077 10.6034 138.184 11.4371 138.398 12.1359C138.613 12.8267 138.915 13.3944 139.304 13.8391C139.701 14.2837 140.173 14.6132 140.721 14.8276C141.277 15.0341 141.888 15.1373 142.555 15.1373C143.333 15.1373 144.036 14.9586 144.663 14.6013C145.291 14.2361 145.823 13.7319 146.259 13.0887L146.426 14.8872Z" fill="#FFD04F"/>
<path d="M170.223 4.23161C169.346 4.0835 168.509 4.15152 167.712 4.43567C166.923 4.72114 166.21 5.17647 165.573 5.80167L165.611 5.50609L165.791 3.72462L163.16 3.28029L161.014 15.9875L163.82 16.4616L165.146 8.61647C165.358 8.26578 165.598 7.9641 165.866 7.71144C166.134 7.45878 166.441 7.26494 166.786 7.12993C167.108 6.98313 167.466 6.89448 167.857 6.86401C168.249 6.83353 168.68 6.85796 169.15 6.93731C169.565 7.00739 169.976 7.10097 170.383 7.21803C170.797 7.33642 171.212 7.47896 171.627 7.64564L172.494 4.94146C172.266 4.81434 171.942 4.6831 171.522 4.54773C171.11 4.41368 170.677 4.30831 170.223 4.23161Z" fill="#FFD04F"/>
<path d="M206.502 24.9785L207.405 31.8735L210.496 33.5698L209.079 24.2191L216.059 21.9228L213.052 20.2724L207.731 21.9713L206.067 22.5525L211.248 13.1137L208.742 11.7383L199.94 27.776L202.445 29.1514L204.44 25.5178L206.502 24.9785Z" fill="#FFD04F"/>
<path d="M218.182 38.7019L220.415 40.4681L226.119 33.2568C226.352 33.1675 226.59 33.103 226.834 33.0632C227.079 33.0234 227.315 33.0129 227.543 33.0315C227.839 33.0534 228.133 33.1237 228.424 33.2424C228.72 33.3549 229.005 33.5195 229.279 33.7363C229.609 33.9974 229.872 34.2663 230.068 34.543C230.269 34.8135 230.393 35.1042 230.441 35.4152C230.489 35.7262 230.448 36.0588 230.32 36.4129C230.192 36.7671 229.963 37.1527 229.632 37.57L224.674 43.8377L226.907 45.6039L231.895 39.2987C232.456 38.5888 232.85 37.9183 233.076 37.2871C233.307 36.6496 233.398 36.0483 233.349 35.4831C233.3 34.9179 233.12 34.3906 232.808 33.9012C232.497 33.4118 232.083 32.9627 231.566 32.5538C231.173 32.2434 230.755 32.0039 230.312 31.8352C229.868 31.6665 229.416 31.5666 228.954 31.5357C228.664 31.5186 228.368 31.5277 228.067 31.5628C227.777 31.5966 227.487 31.6559 227.197 31.7405L228.195 30.1912L226.178 28.595L218.182 38.7019Z" fill="#FFD04F"/>
<path d="M238.885 47.7426L238.699 47.9102C237.998 48.5432 237.443 49.226 237.034 49.9584C236.625 50.6908 236.376 51.4454 236.285 52.2222C236.19 52.9932 236.268 53.7674 236.521 54.5449C236.773 55.3225 237.216 56.062 237.849 56.7635C238.477 57.459 239.162 57.9692 239.904 58.294C240.652 58.6247 241.414 58.7818 242.19 58.7654C242.967 58.749 243.741 58.575 244.511 58.2434C245.281 57.9119 246.017 57.4295 246.719 56.7965L246.904 56.6289C247.6 56.0012 248.152 55.3211 248.561 54.5887C248.975 53.8509 249.23 53.0966 249.326 52.3257C249.416 51.5489 249.335 50.7717 249.083 49.9941C248.836 49.2225 248.396 48.4859 247.763 47.7844C247.13 47.083 246.442 46.5698 245.699 46.2451C244.957 45.9203 244.198 45.7661 243.421 45.7825C242.639 45.793 241.86 45.9667 241.084 46.3036C240.313 46.6352 239.58 47.1148 238.885 47.7426ZM240.606 50.0234L240.792 49.8558C241.21 49.4781 241.651 49.1606 242.114 48.9032C242.582 48.6517 243.049 48.4929 243.513 48.4268C243.972 48.3547 244.418 48.386 244.849 48.5206C245.286 48.661 245.685 48.9317 246.047 49.3325C246.414 49.7393 246.643 50.1642 246.732 50.6073C246.827 51.0563 246.818 51.5084 246.705 51.9636C246.581 52.407 246.37 52.8488 246.072 53.2889C245.774 53.729 245.416 54.1379 244.997 54.5156L244.812 54.6832C244.381 55.0716 243.932 55.3915 243.464 55.643C243.001 55.9003 242.54 56.065 242.081 56.1371C241.622 56.2091 241.174 56.1749 240.737 56.0344C240.306 55.8887 239.912 55.6183 239.555 55.2234C239.188 54.8166 238.954 54.3914 238.853 53.9477C238.758 53.4987 238.77 53.0495 238.889 52.6002C239.002 52.145 239.208 51.6974 239.506 51.2573C239.809 50.8231 240.176 50.4118 240.606 50.0234Z" fill="#FFD04F"/>
<path d="M248.598 69.7599L249.896 71.7996L256.941 69.2491L258.441 68.6332L257.255 69.7414L251.981 75.0751L253.279 77.1148L265.487 72.2945L264.1 70.1142L256.848 73.3608L255.4 74.0141L256.569 72.9452L262.309 67.3008L261.305 65.7234L253.741 68.547L252.345 69.1255L253.492 68.1552L259.514 62.91L258.132 60.7397L248.598 69.7599Z" fill="#FFD04F"/>
<path d="M275.836 80.6177L273.652 81.5397L275.237 85.2922L262.739 90.5693L261.154 86.8167L258.982 87.7341L263.203 97.73L265.375 96.8127L263.856 93.2137L278.537 87.0146L275.836 80.6177Z" fill="#FFD04F"/>
<path d="M267.454 113.044C267.742 114.265 268.228 115.247 268.909 115.992C269.593 116.744 270.286 117.257 270.987 117.532L272.074 115.709C271.488 115.439 270.989 115.039 270.578 114.508C270.175 113.975 269.892 113.365 269.729 112.677C269.61 112.175 269.585 111.691 269.655 111.226C269.726 110.768 269.88 110.348 270.116 109.966C270.337 109.588 270.611 109.266 270.94 109C271.269 108.735 271.698 108.495 272.226 108.28L272.284 108.266L274.34 116.959L275.534 116.677C276.43 116.465 277.229 116.15 277.929 115.731C278.63 115.313 279.199 114.803 279.636 114.202C280.065 113.602 280.349 112.919 280.485 112.153C280.63 111.384 280.595 110.548 280.382 109.644C280.19 108.832 279.854 108.104 279.375 107.458C278.906 106.819 278.325 106.295 277.633 105.888C276.941 105.48 276.161 105.216 275.292 105.095C274.423 104.974 273.497 105.03 272.516 105.262L272.041 105.374C271.183 105.577 270.418 105.913 269.746 106.382C269.083 106.857 268.546 107.433 268.135 108.109C267.716 108.788 267.442 109.546 267.314 110.384C267.188 111.23 267.234 112.116 267.454 113.044ZM278.13 110.164C278.24 110.628 278.255 111.052 278.175 111.439C278.104 111.831 277.965 112.173 277.757 112.467C277.543 112.771 277.27 113.031 276.938 113.249C276.614 113.464 276.27 113.615 275.907 113.701L275.721 113.744L274.326 107.845C274.825 107.816 275.285 107.846 275.706 107.934C276.127 108.023 276.503 108.166 276.836 108.365C277.161 108.565 277.432 108.815 277.65 109.115C277.877 109.42 278.037 109.77 278.13 110.164Z" fill="#FFD04F"/>
<path d="M276.918 127.217L276.668 127.233C275.741 127.293 274.885 127.468 274.1 127.758C273.323 128.047 272.66 128.429 272.11 128.902C271.552 129.376 271.127 129.937 270.834 130.584C270.55 131.231 270.434 131.947 270.485 132.731C270.533 133.476 270.71 134.125 271.017 134.678C271.331 135.231 271.755 135.696 272.289 136.075L270.955 136.294L271.122 138.873L289.378 137.686L289.194 134.846L282.597 135.274C283.03 134.832 283.352 134.334 283.563 133.779C283.782 133.232 283.868 132.602 283.822 131.889C283.77 131.096 283.561 130.394 283.195 129.781C282.838 129.176 282.355 128.674 281.749 128.276C281.141 127.869 280.426 127.574 279.602 127.389C278.787 127.211 277.892 127.154 276.918 127.217ZM276.853 130.074L277.102 130.058C277.681 130.02 278.227 130.04 278.741 130.118C279.264 130.196 279.727 130.344 280.131 130.565C280.534 130.769 280.859 131.051 281.105 131.409C281.351 131.775 281.492 132.223 281.527 132.754C281.568 133.388 281.459 133.92 281.201 134.351C280.951 134.789 280.596 135.15 280.137 135.434L274.61 135.793C274.111 135.571 273.704 135.259 273.392 134.858C273.087 134.456 272.914 133.934 272.872 133.292C272.838 132.769 272.916 132.315 273.106 131.929C273.304 131.542 273.589 131.217 273.962 130.954C274.319 130.692 274.747 130.489 275.247 130.345C275.747 130.201 276.282 130.111 276.853 130.074Z" fill="#FFD04F"/>
<path d="M277.541 149.599L277.292 149.574C276.368 149.479 275.494 149.509 274.672 149.664C273.857 149.827 273.139 150.101 272.517 150.484C271.886 150.874 271.372 151.368 270.975 151.966C270.587 152.564 270.352 153.259 270.27 154.049C270.226 154.483 270.232 154.891 270.288 155.272C270.337 155.652 270.433 156.005 270.575 156.331C270.664 156.548 270.775 156.75 270.907 156.94C271.039 157.137 271.183 157.327 271.339 157.511L270.451 157.42C269.969 157.37 269.546 157.255 269.181 157.074C268.816 156.9 268.516 156.674 268.281 156.394C268.041 156.09 267.87 155.734 267.769 155.324C267.666 154.922 267.641 154.469 267.693 153.963C267.723 153.671 267.784 153.386 267.877 153.108C267.961 152.829 268.081 152.558 268.236 152.295C268.39 152.031 268.584 151.776 268.817 151.528C269.042 151.288 269.304 151.068 269.604 150.867L268.023 149.352C267.615 149.597 267.256 149.903 266.947 150.271C266.638 150.638 266.378 151.03 266.168 151.448C265.957 151.865 265.79 152.287 265.666 152.713C265.543 153.14 265.462 153.534 265.425 153.898C265.336 154.759 265.378 155.557 265.55 156.293C265.713 157.036 265.997 157.688 266.402 158.249C266.816 158.802 267.345 159.252 267.988 159.597C268.622 159.95 269.37 160.17 270.231 160.259L282.695 161.54L282.959 158.969L281.68 158.718C281.886 158.579 282.077 158.427 282.254 158.262C282.438 158.097 282.6 157.918 282.74 157.725C282.962 157.428 283.14 157.092 283.275 156.714C283.417 156.338 283.513 155.913 283.562 155.439C283.644 154.641 283.555 153.906 283.297 153.232C283.046 152.568 282.656 151.981 282.125 151.472C281.595 150.962 280.939 150.547 280.158 150.228C279.385 149.909 278.512 149.699 277.541 149.599ZM276.999 152.417L277.248 152.443C277.825 152.502 278.36 152.617 278.853 152.788C279.354 152.959 279.786 153.191 280.147 153.483C280.508 153.768 280.781 154.111 280.963 154.513C281.145 154.915 281.209 155.38 281.154 155.91C281.124 156.21 281.06 156.483 280.962 156.728C280.873 156.974 280.763 157.194 280.631 157.388C280.473 157.604 280.291 157.789 280.083 157.943C279.875 158.105 279.646 158.237 279.396 158.339L273.78 157.762C273.564 157.612 273.37 157.444 273.197 157.259C273.025 157.074 272.882 156.867 272.77 156.64C272.665 156.414 272.591 156.163 272.548 155.887C272.504 155.619 272.498 155.323 272.531 154.999C272.585 154.478 272.738 154.039 272.99 153.682C273.25 153.325 273.586 153.044 273.999 152.839C274.396 152.625 274.853 152.484 275.371 152.418C275.888 152.359 276.431 152.359 276.999 152.417Z" fill="#FFD04F"/>
<path d="M266.192 176.109C265.858 177.319 265.811 178.414 266.05 179.394C266.288 180.383 266.648 181.166 267.13 181.744L268.96 180.668C268.576 180.15 268.332 179.56 268.227 178.896C268.13 178.235 268.175 177.564 268.363 176.883C268.501 176.385 268.712 175.949 268.997 175.575C269.28 175.208 269.616 174.914 270.007 174.693C270.382 174.467 270.778 174.317 271.194 174.242C271.61 174.168 272.102 174.164 272.668 174.23L272.726 174.246L270.345 182.856L271.527 183.182C272.415 183.428 273.267 183.536 274.083 183.506C274.898 183.476 275.642 183.303 276.315 182.986C276.979 182.667 277.556 182.205 278.045 181.599C278.542 180.995 278.914 180.245 279.161 179.349C279.384 178.546 279.44 177.746 279.331 176.949C279.227 176.163 278.97 175.424 278.559 174.734C278.149 174.044 277.592 173.437 276.888 172.913C276.184 172.389 275.347 171.992 274.375 171.723L273.904 171.593C273.054 171.358 272.222 171.285 271.407 171.373C270.597 171.47 269.85 171.716 269.164 172.112C268.47 172.505 267.865 173.038 267.35 173.711C266.832 174.392 266.446 175.191 266.192 176.109ZM276.938 178.722C276.811 179.181 276.619 179.561 276.363 179.861C276.113 180.171 275.826 180.404 275.502 180.562C275.169 180.725 274.804 180.822 274.408 180.853C274.02 180.885 273.647 180.852 273.287 180.753L273.103 180.702L274.719 174.859C275.17 175.074 275.559 175.321 275.885 175.601C276.211 175.881 276.473 176.188 276.668 176.522C276.857 176.854 276.974 177.204 277.021 177.571C277.073 177.948 277.045 178.332 276.938 178.722Z" fill="#FFD04F"/>
<path d="M257.443 213.007L257.237 212.865C256.473 212.337 255.693 211.943 254.898 211.683C254.105 211.435 253.343 211.329 252.614 211.365C251.873 211.404 251.185 211.59 250.549 211.923C249.921 212.26 249.381 212.756 248.929 213.409C248.681 213.769 248.49 214.129 248.357 214.49C248.216 214.847 248.13 215.202 248.098 215.556C248.072 215.789 248.072 216.021 248.096 216.25C248.117 216.486 248.151 216.722 248.2 216.959L247.465 216.451C247.067 216.176 246.751 215.871 246.519 215.537C246.282 215.209 246.128 214.867 246.057 214.509C245.993 214.127 246.014 213.732 246.122 213.324C246.226 212.922 246.422 212.512 246.711 212.094C246.878 211.853 247.069 211.632 247.283 211.433C247.492 211.229 247.727 211.049 247.989 210.893C248.252 210.736 248.545 210.606 248.868 210.501C249.18 210.398 249.516 210.331 249.876 210.299L249.219 208.211C248.743 208.229 248.281 208.325 247.834 208.498C247.386 208.672 246.969 208.891 246.584 209.155C246.199 209.42 245.849 209.709 245.536 210.023C245.222 210.338 244.962 210.645 244.754 210.946C244.262 211.658 243.914 212.378 243.711 213.106C243.496 213.836 243.432 214.544 243.518 215.23C243.614 215.915 243.861 216.563 244.259 217.175C244.645 217.789 245.194 218.342 245.907 218.834L256.217 225.954L257.685 223.828L256.685 222.992C256.932 222.97 257.173 222.928 257.407 222.868C257.648 222.813 257.876 222.734 258.092 222.632C258.429 222.479 258.747 222.269 259.047 222.003C259.353 221.742 259.641 221.415 259.912 221.023C260.368 220.363 260.644 219.676 260.742 218.962C260.842 218.259 260.781 217.556 260.562 216.854C260.342 216.153 259.967 215.473 259.436 214.817C258.911 214.165 258.247 213.562 257.443 213.007ZM255.613 215.217L255.819 215.359C256.296 215.689 256.71 216.047 257.06 216.433C257.417 216.825 257.683 217.236 257.859 217.666C258.039 218.089 258.113 218.521 258.079 218.961C258.045 219.401 257.877 219.84 257.575 220.278C257.404 220.526 257.216 220.734 257.013 220.903C256.816 221.076 256.614 221.216 256.405 221.322C256.163 221.435 255.914 221.509 255.658 221.545C255.397 221.587 255.133 221.592 254.865 221.561L250.219 218.353C250.102 218.118 250.012 217.877 249.95 217.632C249.888 217.386 249.863 217.137 249.873 216.884C249.891 216.635 249.947 216.38 250.041 216.117C250.131 215.861 250.269 215.599 250.454 215.331C250.752 214.899 251.097 214.588 251.49 214.396C251.89 214.209 252.319 214.125 252.779 214.143C253.231 214.146 253.7 214.243 254.185 214.434C254.667 214.631 255.143 214.892 255.613 215.217Z" fill="#FFD04F"/>
<path d="M233.369 232.541L231.342 234.624L231.487 234.765C231.837 234.884 232.207 235.073 232.598 235.331C232.989 235.601 233.393 235.938 233.808 236.342L237.914 240.338C238.438 240.847 238.993 241.199 239.579 241.393C240.172 241.593 240.765 241.649 241.359 241.562C241.953 241.476 242.545 241.26 243.136 240.915C243.726 240.581 244.285 240.144 244.811 239.603C245.398 239 245.841 238.385 246.142 237.757C246.442 237.141 246.614 236.544 246.656 235.965C246.716 235.38 246.658 234.836 246.482 234.333C246.307 233.83 246.037 233.396 245.673 233.03L243.679 235.079C243.856 235.25 243.99 235.442 244.083 235.654C244.176 235.878 244.21 236.11 244.185 236.352C244.172 236.605 244.1 236.867 243.968 237.138C243.832 237.415 243.628 237.693 243.357 237.972C243.058 238.28 242.755 238.511 242.448 238.667C242.141 238.834 241.837 238.931 241.534 238.957C241.242 238.973 240.961 238.926 240.69 238.817C240.413 238.714 240.155 238.547 239.916 238.314L239.293 237.708L240.738 236.222C241.386 235.557 241.905 234.898 242.295 234.247C242.679 233.602 242.926 232.983 243.036 232.392C243.156 231.756 243.12 231.145 242.927 230.558C242.734 229.982 242.384 229.448 241.877 228.955C241.485 228.573 241.043 228.292 240.552 228.114C240.061 227.946 239.558 227.889 239.042 227.941C238.526 227.981 238.005 228.129 237.481 228.383C236.957 228.649 236.462 229.02 235.997 229.498C235.709 229.794 235.469 230.098 235.277 230.41C235.084 230.721 234.932 231.038 234.818 231.359C234.699 231.675 234.619 231.985 234.578 232.289C234.537 232.604 234.522 232.905 234.531 233.191C234.327 233.048 234.126 232.913 233.928 232.786C233.73 232.671 233.543 232.589 233.369 232.541ZM237.254 231.486C237.509 231.224 237.762 231.027 238.012 230.894C238.269 230.767 238.518 230.694 238.759 230.674C239 230.653 239.234 230.687 239.459 230.773C239.691 230.866 239.901 231.003 240.088 231.186C240.316 231.407 240.482 231.647 240.587 231.904C240.686 232.166 240.718 232.446 240.682 232.745C240.648 233.088 240.513 233.46 240.277 233.862C240.046 234.269 239.715 234.695 239.283 235.139L238.004 236.453L236.297 234.792C236.221 234.574 236.181 234.331 236.177 234.061C236.174 233.792 236.209 233.51 236.284 233.217C236.358 232.924 236.475 232.628 236.634 232.328C236.787 232.034 236.994 231.753 237.254 231.486Z" fill="#FFD04F"/>
<path d="M220.755 237.343L218.458 239.025L222.073 243.965C221.853 243.92 221.63 243.891 221.405 243.879C221.179 243.866 220.957 243.872 220.738 243.895C220.367 243.939 220 244.036 219.636 244.184C219.266 244.337 218.895 244.549 218.523 244.821C217.869 245.3 217.388 245.859 217.079 246.498C216.769 247.138 216.615 247.821 216.616 248.549C216.613 249.27 216.761 250.017 217.062 250.791C217.356 251.569 217.777 252.333 218.326 253.083L218.474 253.285C219.046 254.067 219.658 254.716 220.311 255.231C220.969 255.754 221.639 256.125 222.321 256.344C223.009 256.558 223.703 256.606 224.404 256.487C225.097 256.373 225.777 256.072 226.444 255.585C226.783 255.336 227.076 255.063 227.321 254.766C227.57 254.475 227.771 254.171 227.922 253.853C228.039 253.61 228.13 253.357 228.193 253.094C228.257 252.831 228.295 252.562 228.31 252.286L229.177 253.289L231.292 251.742L220.755 237.343ZM220.771 251.604L220.623 251.402C220.286 250.941 220.009 250.469 219.794 249.987C219.584 249.511 219.461 249.04 219.425 248.575C219.387 248.12 219.454 247.687 219.626 247.276C219.796 246.876 220.095 246.519 220.525 246.205C220.787 246.013 221.049 245.866 221.309 245.764C221.574 245.669 221.83 245.609 222.078 245.585C222.324 245.572 222.565 245.592 222.801 245.646C223.037 245.7 223.266 245.783 223.487 245.897L226.87 250.52C226.908 250.787 226.916 251.047 226.894 251.299C226.866 251.556 226.796 251.804 226.686 252.043C226.596 252.256 226.467 252.463 226.3 252.665C226.132 252.866 225.93 253.053 225.693 253.227C225.263 253.541 224.829 253.721 224.39 253.767C223.951 253.812 223.52 253.754 223.096 253.592C222.679 253.425 222.273 253.166 221.879 252.815C221.482 252.475 221.113 252.072 220.771 251.604Z" fill="#FFD04F"/>
<path d="M200.095 260.136C200.002 259.952 199.959 259.76 199.966 259.561C199.97 259.373 200.021 259.174 200.12 258.964C200.241 258.709 200.445 258.451 200.732 258.192C201.013 257.936 201.373 257.698 201.813 257.477C202.14 257.313 202.479 257.184 202.83 257.087C203.185 256.998 203.526 256.97 203.853 257.001C204.183 257.022 204.494 257.111 204.785 257.267C205.073 257.434 205.316 257.689 205.515 258.033L207.986 256.796C207.748 256.32 207.399 255.908 206.941 255.561C206.483 255.213 205.945 254.972 205.327 254.838C204.712 254.693 204.03 254.67 203.281 254.77C202.525 254.874 201.731 255.133 200.901 255.55C200.155 255.923 199.52 256.348 198.995 256.824C198.47 257.3 198.063 257.801 197.776 258.327C197.496 258.849 197.346 259.382 197.325 259.925C197.297 260.472 197.411 261.001 197.667 261.512C197.93 262.038 198.271 262.435 198.69 262.705C199.11 262.974 199.596 263.148 200.15 263.226C200.697 263.289 201.308 263.267 201.983 263.16C202.657 263.053 203.378 262.888 204.145 262.663C204.692 262.496 205.158 262.382 205.545 262.321C205.925 262.264 206.24 262.253 206.488 262.289C206.747 262.31 206.955 262.379 207.112 262.496C207.271 262.62 207.401 262.781 207.501 262.98C207.597 263.172 207.641 263.376 207.634 263.593C207.631 263.816 207.569 264.038 207.449 264.259C207.335 264.493 207.156 264.721 206.911 264.941C206.663 265.172 206.347 265.383 205.963 265.575C205.545 265.785 205.151 265.912 204.781 265.955C204.416 266.005 204.087 265.987 203.796 265.902C203.547 265.831 203.33 265.718 203.146 265.562C202.957 265.416 202.81 265.237 202.703 265.024L200.158 266.299C200.418 266.817 200.773 267.243 201.224 267.577C201.676 267.91 202.192 268.135 202.775 268.252C203.365 268.365 204.011 268.361 204.714 268.24C205.42 268.126 206.157 267.876 206.924 267.492C207.641 267.133 208.248 266.714 208.744 266.234C209.234 265.758 209.605 265.257 209.857 264.731C210.115 264.202 210.252 263.667 210.265 263.127C210.276 262.598 210.163 262.099 209.929 261.631C209.683 261.141 209.358 260.767 208.953 260.508C208.548 260.249 208.083 260.082 207.557 260.008C207.017 259.923 206.424 259.918 205.778 259.993C205.125 260.072 204.431 260.211 203.696 260.411C203.113 260.578 202.616 260.694 202.204 260.758C201.793 260.822 201.445 260.845 201.161 260.828C200.884 260.789 200.663 260.713 200.5 260.599C200.329 260.489 200.194 260.335 200.095 260.136Z" fill="#FFD04F"/>
<path d="M184.205 268.156L181.665 268.934C181.756 269.23 181.827 269.49 181.879 269.715C181.934 269.948 181.96 270.168 181.957 270.377C181.962 270.583 181.928 270.796 181.855 271.018C181.784 271.248 181.668 271.507 181.508 271.797C181.243 272.235 180.983 272.688 180.728 273.157C180.465 273.628 180.251 274.108 180.086 274.599C179.913 275.092 179.805 275.594 179.763 276.106C179.715 276.627 179.774 277.161 179.942 277.708C180.158 278.414 180.467 279.004 180.87 279.479C181.273 279.953 181.751 280.309 182.305 280.546C182.86 280.783 183.489 280.898 184.192 280.89C184.89 280.893 185.646 280.769 186.458 280.521C187.187 280.297 187.833 279.996 188.398 279.615C188.965 279.242 189.423 278.799 189.772 278.285C190.124 277.779 190.352 277.211 190.458 276.58C190.557 275.952 190.499 275.276 190.286 274.553L187.553 275.39C187.667 275.762 187.696 276.102 187.641 276.409C187.578 276.719 187.458 276.992 187.281 277.229C187.105 277.466 186.884 277.666 186.618 277.831C186.356 278.003 186.068 278.136 185.757 278.231C185.362 278.352 184.998 278.41 184.664 278.404C184.325 278.408 184.02 278.348 183.749 278.223C183.504 278.099 183.288 277.912 183.104 277.661C182.914 277.42 182.763 277.118 182.651 276.753C182.551 276.427 182.522 276.087 182.563 275.734C182.597 275.383 182.676 275.031 182.801 274.677C182.93 274.314 183.086 273.955 183.268 273.6C183.445 273.255 183.625 272.922 183.809 272.6C184.078 272.177 184.28 271.808 184.416 271.492C184.552 271.176 184.63 270.862 184.65 270.548C184.668 270.227 184.641 269.879 184.567 269.503C184.488 269.137 184.367 268.688 184.205 268.156ZM183.506 264.534C183.376 264.108 183.125 263.791 182.754 263.581C182.385 263.378 181.942 263.356 181.425 263.514C180.917 263.67 180.562 263.936 180.362 264.313C180.157 264.7 180.119 265.106 180.249 265.531C180.386 265.979 180.648 266.305 181.035 266.511C181.414 266.719 181.858 266.745 182.367 266.589C182.883 266.431 183.237 266.161 183.427 265.779C183.617 265.396 183.644 264.981 183.506 264.534Z" fill="#FFD04F"/>
</svg>
